<svg xmlns="http://www.w3.org/2000/svg" viewBox="0 0 47.32 37.35">
  <title>icon-objets-malvoyant</title>
  <g>
    <path d="M15.48.27,15,.3,10.65,4.69l.21.2Z" fill="#baa089"/>
    <path d="M12.23.53l-.37,0L9.2,3.23l.16.17Z" fill="#baa089"/>
    <path d="M29.51,24.28C50.8,21.92,47.07,6.48,47.07,4S34.49,0,23.66,0c-1.92,0-3.89.05-5.84.14a.93.93,0,0,1-.26.63L12.15,6.18l.26.26L16.5,2.35a.87.87,0,0,1,1.24,0l.07.07a.87.87,0,0,1,0,1.24L13.7,7.73,13,8.48,11.45,10c1.36-.06,2.54-.46,3.06-.14.67.41.7,1.3-.42,1.67S8,13.31,7.94,13.31c-.83.36-2.46.46-4.27-1.35a3.79,3.79,0,0,1-.23-5.55L7.9,1.94h0l1-1C3.89,1.59.25,2.65.25,4c0,2-2.3,11.89,7,17.21.39-1.37,1.34-4.65,1.63-5.53.36-1.12,1.25-1.09,1.67-.42.31.52-.08,1.7-.15,3.06l1.5-1.5.75-.74L16.77,12A.89.89,0,0,1,18,12l.07.07a.87.87,0,0,1,0,1.24L14,17.36l.26.26,5.41-5.42a.88.88,0,0,1,1.24,0l.07.06a.87.87,0,0,1,0,1.24l-5.41,5.42.2.2,4.6-4.59a.87.87,0,0,1,1.24,0l.07.06a.88.88,0,0,1,0,1.24L17,20.4l.17.17,3.36-3.37a.88.88,0,0,1,1.24,0l.07.06a.87.87,0,0,1,0,1.24l-3.36,3.37h0l-2.21,2.21c.5.08,1,.15,1.55.21,1.86.87,1.86,1.12,1.86,1.12l.11,1.5-.85,1L12,32.5v2.61s1.25,2.24,11.71,2.24,11.7-2.24,11.7-2.24V32.5l-7-4.61-.86-1,.11-1.5S27.64,25.15,29.51,24.28Z" fill="#baa089"/>
  </g>
</svg>
