<svg xmlns="http://www.w3.org/2000/svg" viewBox="0 0 47.32 37.35">
  <title>icon-objets</title>
  <g>
    <path d="M31.11,12.35l.08.08C40.8,12.06,46.54,11,47,10.28l.18,0a20.76,20.76,0,0,0,.12-2.54c-2.07,1.08-7.86,1.69-13.7,2Z" fill="#baa089"/>
    <path d="M.33,11.69c.81,4.13,3.42,8.78,10.84,11.21L1.59,13l-.71.73c-.11-.33-.21-.65-.3-1L1,12.35Z" fill="#baa089"/>
    <path d="M30.49,11.7l1.82-1.88-3.52.12Z" fill="#baa089"/>
    <path d="M23.66,10a157.16,157.16,0,0,1-18.26-1L3.23,11.29A127.62,127.62,0,0,0,23.5,12.57c2.22,0,4.29,0,6.24-.09l.13-.13L27.57,10C26.16,10,24.83,10,23.66,10Z" fill="#baa089"/>
    <path d="M47.05,11.32c-2.32,1.14-8.79,1.73-15,2l7.74,8A13.64,13.64,0,0,0,47.05,11.32Z" fill="#baa089"/>
    <path d="M34.57,8.77c7.66-.45,12.19-1.32,12.61-2l.1,0c0-.88-.12-1.61-.17-2.15C45.24,5.44,41.33,6,37,6.27Z" fill="#baa089"/>
    <path d="M.11,10.17l.44.47a11,11,0,0,0,1.63.45L4.3,8.89A15.39,15.39,0,0,1,0,7.76a19.3,19.3,0,0,0,.14,2.66h0A2.13,2.13,0,0,1,.11,10.17Z" fill="#baa089"/>
    <path d="M.13,6.78c.26.4,2,.87,5,1.29L7.14,6A24.12,24.12,0,0,1,.22,4.51C.17,5.07.08,5.87,0,6.85H.15A.08.08,0,0,0,.13,6.78Z" fill="#baa089"/>
    <path d="M28.81,13.44c-1.93.05-3.75.07-5.31.07-6,0-15.87-.33-21-1.42l-.25.26,10.69,11c-.6-.15-1.18-.32-1.73-.5a32.63,32.63,0,0,0,6.64,1.38l.35.17h0Z" fill="#baa089"/>
    <path d="M8,5.1l1.14.11c3.76.33,8.62.57,14.41.58h1.24c4.59,0,8.57-.18,11.86-.42L38,5.25h0c4.9-.41,8.05-1,9.05-1.52C46.21,1.39,34.12,0,23.66,0,13.45,0,1.7,1.33.38,3.57.89,4.06,3.54,4.65,8,5.1Z" fill="#baa089"/>
    <path d="M24.75,27.05c1,0,1.95,0,2.89,0l-.11-.13.1-1.38c-1.37,0-2.66,0-3.81,0s-2.65,0-4.14,0l.1,1.38-.06.08C21.32,27,23,27.05,24.75,27.05Z" fill="#baa089"/>
    <path d="M24.75,28c-1.91,0-3.87,0-5.8-.12l0,0L12,32.5v2.61s1.25,2.24,11.71,2.24,11.7-2.24,11.7-2.24V32.5l-6.89-4.56C27.22,28,26,28,24.75,28Z" fill="#baa089"/>
    <path d="M.3,11.47h0a1.7,1.7,0,0,1,0,.22Z" fill="#baa089"/>
    <path d="M29,24.55l.56-.27a27.38,27.38,0,0,0,10.29-3c-.27.15-.53.3-.82.44l-8.12-8.4-.77,0L19.29,24.56c1.45,0,2.95.06,4.53.06C25.62,24.62,27.33,24.59,29,24.55Z" fill="#baa089"/>
    <path d="M23.82,6.73c-4.26,0-10.45-.17-15.54-.66L6.21,8.21a151.37,151.37,0,0,0,17.45.87c1,0,2,0,3,0L24.43,6.73Z" fill="#baa089"/>
    <path d="M27.9,9c1.91,0,3.7-.1,5.35-.18l2.4-2.49c-3.42.22-7,.33-10,.36Z" fill="#baa089"/>
  </g>
</svg>
