<svg xmlns="http://www.w3.org/2000/svg" viewBox="0 0 55.07 43.04">
  <title>icon-themes-malvoyant</title>
  <path d="M49.65,15.28H45.2l2.23-8L42.65,4.14H37.88L36.29,0H27.37V1.27L24.83,2.55,20.37,5.31,16,3.82,14,5.41,11.46,2.55,0,8.28v2.86l5.73,5.41,3.18-2.23,2.23,5.41L16,22l1.23,3.82,5.41-.32.95,7,2.63.63a2.74,2.74,0,0,1,.2-1.12s1.44-5,1.81-6.15,1.25-1.09,1.67-.42c.32.52-.08,1.7-.15,3.06l1.5-1.5.75-.74,4.09-4.1a.89.89,0,0,1,1.24,0l.07.07a.87.87,0,0,1,0,1.24l-4.09,4.1.26.26,5.41-5.42a.88.88,0,0,1,1.24,0l.07.06a.87.87,0,0,1,0,1.24L34.8,29.07l.2.2,4.6-4.59a.87.87,0,0,1,1.24,0l.07.06a.87.87,0,0,1,0,1.24l-4.6,4.6.17.17,3.36-3.37a.89.89,0,0,1,1.25,0l.06.06a.87.87,0,0,1,0,1.24L37.75,32h0l-4.09,4.1.08,1.12L40.59,43l7.47-2.93-1.91-6L49,29H52.2l2.87-3.81ZM39.07,13,35,17.07l-.75.74-1.5,1.51c1.36-.07,2.54-.47,3.06-.15.67.41.7,1.3-.42,1.67s-6.14,1.81-6.15,1.81c-.83.35-2.46.46-4.27-1.35a3.8,3.8,0,0,1-.23-5.56l4.46-4.46h0l3.36-3.36a.87.87,0,0,1,1.24,0l.07.06a.87.87,0,0,1,0,1.24l-3.36,3.37.16.16,4.6-4.59a.87.87,0,0,1,1.24,0l.07.07a.88.88,0,0,1,0,1.24L31.93,14l.21.21,5.41-5.42a.88.88,0,0,1,1.24,0l.07.06a.87.87,0,0,1,0,1.24l-5.42,5.42.27.26,4.09-4.09a.87.87,0,0,1,1.24,0l.07.06A.88.88,0,0,1,39.07,13Z" fill="#baa089"/>
</svg>
