<svg xmlns="http://www.w3.org/2000/svg" viewBox="0 0 43.84 43.82">
  <title>icon-jeunes</title>
  <g>
    <path d="M35.07,20.9a12.63,12.63,0,0,1-11,3.38,13,13,0,0,1,.46,3.38,12.77,12.77,0,0,1-3.22,8.49A11.64,11.64,0,1,0,35.07,20.9Zm-9.33,8.93c-.27.89-.94.43-.77-.2a4.82,4.82,0,0,1,3.55-3.44c.75-.14.77.6.39.73A4.9,4.9,0,0,0,25.74,29.83Zm1.71,2.57a1.41,1.41,0,0,1,1.18-1.55,1.61,1.61,0,0,1,0,3.1A1.4,1.4,0,0,1,27.45,32.4Zm4.75,6.9a3.05,3.05,0,0,1-3.32-2.68c0-.38,1.11.64,3.32.64s3.31-1,3.31-.64A3,3,0,0,1,32.2,39.3ZM38,33.61a3.85,3.85,0,0,0-3.33-.23c-.28.1-.69-.81-.18-1.08a3.76,3.76,0,0,1,3.82.36C38.76,33,38.64,34,38,33.61Zm1.65-2.74A4.86,4.86,0,0,0,35.47,30c-.39.08-.76-.57,0-.83a4.82,4.82,0,0,1,4.81,1.12C40.71,30.74,40.37,31.49,39.68,30.87Z" fill="#baa089"/>
    <path d="M22.69,24a12.86,12.86,0,0,1-8.45-7.67,11.64,11.64,0,1,0,9,11.34A11.43,11.43,0,0,0,22.69,24Zm-6.84-2.07c.8,0,1.46,1.42,1.46,3.16s-.66,3.17-1.46,3.17-1.47-1.42-1.47-3.17S15,21.92,15.85,21.92Zm-8.4,0c.8,0,1.46,1.42,1.46,3.16s-.66,3.17-1.46,3.17S6,26.83,6,25.08,6.64,21.92,7.45,21.92Zm4.2,14.87c-5.7,0-7.72-4.29-7.72-6.26,0-.88,2.57,1.5,7.72,1.5s7.71-2.38,7.71-1.5C19.36,32.5,17.34,36.79,11.65,36.79Z" fill="#baa089"/>
    <path d="M26.18,23.29A11.65,11.65,0,1,0,14.54,11.64,11.65,11.65,0,0,0,26.18,23.29ZM30.33,8.67a1.49,1.49,0,1,1-1.49,1.49A1.49,1.49,0,0,1,30.33,8.67Zm-8.3,0a1.49,1.49,0,1,1-1.48,1.49A1.48,1.48,0,0,1,22,8.67Zm-2.3,5.62A7.12,7.12,0,0,0,26.18,18a7.11,7.11,0,0,0,6.45-3.74c.36-.64.45-.16.35.2-.5,1.92-2.47,4.67-6.8,4.67s-6.29-2.75-6.8-4.67C19.29,14.13,19.37,13.65,19.73,14.29Z" fill="#baa089"/>
  </g>
</svg>
