<?xml version="1.0" encoding="UTF-8" standalone="no"?>
<svg width="190px" height="60px" viewBox="0 0 190 60" version="1.1" xmlns="http://www.w3.org/2000/svg" xmlns:xlink="http://www.w3.org/1999/xlink" xmlns:sketch="http://www.bohemiancoding.com/sketch/ns">
    <!-- Generator: Sketch 3.4.2 (15855) - http://www.bohemiancoding.com/sketch -->
    <title>logo</title>
    <desc>Created with Sketch.</desc>
    <defs/>
    <g id="Assets" stroke="none" stroke-width="1" fill="none" fill-rule="evenodd" sketch:type="MSPage">
        <g id="logo" sketch:type="MSArtboardGroup">
            <g sketch:type="MSLayerGroup">
                <g id="museum" transform="translate(84.903226, 50.000000)" fill="#B8A287" sketch:type="MSShapeGroup">
                    <g id="illustrator" transform="translate(0.096774, 0.000000)">
                        <path d="M8.1088,9.8078 L8.1088,2.7668 C8.1088,2.1058 7.5638,1.7888 6.9088,1.7888 C6.2608,1.7888 5.7098,2.1058 5.7098,2.7668 L5.7098,9.8078 L4.0728,9.8078 L4.0728,2.7668 C4.0728,2.1058 3.5288,1.7888 2.8628,1.7888 C2.1888,1.7888 1.6678,2.1058 1.6678,2.7668 L1.6678,9.8078 L-0.0002,9.8078 L-0.0002,0.7428 L1.6678,0.7428 L1.6678,1.3798 C2.4508,0.4858 3.7008,0.4658 4.4918,0.7278 C4.9028,0.8608 5.2178,1.0428 5.4278,1.3798 C6.5248,0.4658 7.8238,0.4858 8.5598,0.7278 C9.3688,0.9918 9.7598,1.4308 9.7598,2.9648 L9.7598,9.8078 L8.1088,9.8078 Z" id="Fill-1"/>
                        <path d="M20.9552,9.8078 L20.9552,9.1858 C20.1762,10.0768 18.9812,10.1238 18.1392,9.8258 C17.3092,9.5758 16.9112,9.1358 16.9112,7.5948 L16.9112,0.7468 L18.5572,0.7468 L18.5572,7.8058 C18.5572,8.4528 19.1072,8.7748 19.7552,8.7748 C20.4352,8.7748 20.9552,8.4528 20.9552,7.8058 L20.9552,0.7428 L22.6302,0.7428 L22.6302,9.8078 L20.9552,9.8078 Z" id="Fill-4"/>
                        <path d="M35.0287,9.3398 C34.6047,9.7658 33.7997,9.9998 32.6237,9.9998 C31.4837,9.9998 30.6737,9.7658 30.2567,9.3398 C29.8057,8.9018 29.7847,8.2168 29.7847,7.5418 L29.7847,6.7588 L31.4317,6.7588 L31.4317,7.8298 C31.4317,8.4878 31.9757,8.7738 32.6237,8.7738 C33.2767,8.7738 33.8247,8.4878 33.8247,7.8298 L33.8247,5.3138 L29.7847,5.3138 L29.7847,3.0488 C29.7847,2.3138 29.8057,1.6658 30.2567,1.2508 C30.6737,0.8068 31.4837,0.5938 32.6237,0.5938 C33.7997,0.5938 34.6047,0.8068 35.0287,1.2508 C35.4717,1.6878 35.4947,2.3488 35.4947,3.0488 L35.4947,3.0198 L33.8247,3.0198 L33.8247,2.7678 C33.8247,2.0788 33.3037,1.8218 32.6237,1.8218 C31.9757,1.8218 31.4317,2.0788 31.4317,2.7678 L31.4317,4.0868 L35.4947,4.0868 L35.4947,7.5128 C35.4947,8.2168 35.4717,8.9018 35.0287,9.3398" id="Fill-6"/>
                        <path d="M47.8894,9.3189 C47.4804,9.7659 46.6714,9.9709 45.4884,9.9709 C44.3434,9.9709 43.5354,9.7659 43.1194,9.3189 C42.6754,8.8709 42.6514,8.2169 42.6514,7.5129 L42.6514,3.0479 C42.6514,2.3499 42.6754,1.6649 43.1194,1.2199 C43.5354,0.8059 44.3434,0.5949 45.4884,0.5949 C46.6714,0.5949 47.4804,0.8059 47.8894,1.2199 C48.3424,1.6649 48.3674,2.3499 48.3674,3.0479 L48.3674,5.3139 L44.2924,5.3139 L44.2924,7.8059 C44.2924,8.4869 44.8464,8.7399 45.4884,8.7399 C46.1754,8.7399 46.6964,8.4869 46.6964,7.8059 L46.6964,6.7599 L48.3674,6.7599 L48.3674,7.5129 C48.3674,8.2169 48.3424,8.8709 47.8894,9.3189 M45.4884,1.8209 C44.8464,1.8209 44.2924,2.0789 44.2924,2.7679 L44.2924,4.0869 L46.6964,4.0869 L46.6964,2.7679 C46.6964,2.0789 46.1754,1.8209 45.4884,1.8209" id="Fill-8"/>
                        <path d="M59.5634,9.8037 L59.5634,9.1607 C58.7834,10.0507 57.5894,10.0957 56.7524,9.8037 C55.9104,9.5447 55.5184,9.1047 55.5184,7.5717 L55.5184,0.7507 L57.1614,0.7507 L57.1614,7.7837 C57.1614,8.4307 57.7124,8.7427 58.3684,8.7427 C59.0424,8.7427 59.5634,8.4307 59.5634,7.7837 L59.5634,0.7507 L61.2374,0.7507 L61.2374,9.8037 L59.5634,9.8037 Z" id="Fill-10"/>
                        <path d="M76.5055,9.8056 L76.5055,2.7596 C76.5055,2.1086 75.9595,1.7846 75.3075,1.7846 C74.6505,1.7846 74.1035,2.1086 74.1035,2.7596 L74.1035,9.8056 L72.4545,9.8056 L72.4545,2.7596 C72.4545,2.1086 71.9125,1.7846 71.2645,1.7846 C70.5775,1.7846 70.0565,2.1086 70.0565,2.7596 L70.0565,9.8056 L68.3855,9.8056 L68.3855,0.7466 L70.0565,0.7466 L70.0565,1.3826 C70.8445,0.4866 72.0915,0.4626 72.8785,0.7276 C73.2975,0.8586 73.6125,1.0416 73.8165,1.3826 C74.9175,0.4626 76.2255,0.4866 76.9485,0.7276 C77.7595,0.9846 78.1465,1.4326 78.1465,2.9666 L78.1465,9.8056 L76.5055,9.8056 Z" id="Fill-12"/>
                    </g>
                </g>
                <g id="belvue" fill="#B8A287" sketch:type="MSShapeGroup">
                    <path d="M27,48.0354453 C26.7326659,53.0732449 26.4623297,60 13.3610837,60 L0,60 L0,0 L13.3610837,0 C26.4623297,0 26.7326659,6.83726439 27,11.8662904 L27,21.5874362 C26.7326659,24.1984588 25.0249109,27.1674441 21.704762,28.3360873 C25.0249109,29.5047304 26.7326659,32.5640838 27,35.0785968 L27,48.0354453 Z M15,9.27724722 C15,8.00836861 14.1378849,7 13.0363358,7 L11,7 L11,25 L13.0363358,25 C14.1378849,25 15,23.9907453 15,22.7192084 L15,9.27724722 Z M15,34.3326526 C15,33.0766089 14.1378849,32 13.0363358,32 L11,32 L11,53 L13.0363358,53 C14.1378849,53 15,52.0187979 15,50.7653801 L15,34.3326526 Z" id="Fill-1"/>
                    <path d="M30,48.4000015 L30,11.6899996 C30.327405,6.67523344 30.6014714,0 43.6658846,0 C56.7276793,0 57,6.67523344 57,11.6850852 L57,32 L41,32 L41,50.8600006 C41.4244754,52.0911505 42.4072739,53.1457209 43.6658846,53.1457209 C44.9131485,53.1457209 45.901184,52.0911505 46,50.8600006 L46,39 L57,39 L57,48.4022959 C57,53.3273366 56.7276793,60 43.6658846,60 C30.6014714,60 30.327405,53.3273366 30,48.4000015 Z M45,9.2700322 C45,8.04678916 44.1171768,7 43.0027296,7 C41.8781439,7 41,8.04678916 41,9.2700322 L41,25 L45,25 L45,9.2700322 Z" id="Fill-3"/>
                    <path d="M61,0 L61,60 L81,60 L81,51 L72,51 L72,0 L61,0 Z" id="Fill-6"/>
                    <path d="M141,34.4804682 L141,11.605302 C141,6.62978142 141.266641,0 154.003397,0 C166.738455,0 167,6.62978142 167,11.605302 L167,25 L152,25 L152,37 C151.816774,38.1414119 152.779737,39.1842416 154.003397,39.1842416 C155.218564,39.1842416 156.186622,38.1414119 156.186622,36.9185497 L156,32 L167,32 L167,34 C167,39.3617265 166.738455,46 154.003397,46 C141.266641,46 141,39.3617265 141,34.4804682 Z M155.403226,9.23143574 C155.403226,8.03002204 154.5225,7 153.416957,7 C152.303689,7 151.427599,8.03002204 151.427599,9.23143574 L151.427599,18 L155.403226,18 L155.403226,9.23143574 Z" id="Fill-19"/>
                    <path d="M127,46 L126.619668,42.3221645 C125.384064,44.3470253 123.006582,45.7627119 120.44767,45.7627119 C114.453662,45.7627119 111.182796,42.5924319 111,36.4300003 L111,0 L122,0 L122,36.6100006 C122.120077,37.839157 123.087407,38.891913 124.32473,38.891913 C125.558614,38.891913 126.619668,37.839157 127,36.6100006 L127,0 L137,0 L137,46 L127,46 Z" id="Fill-21"/>
                    <path d="M96.0312921,0 L92.4408156,38.7253666 L88.917877,0 L78.8387097,0 L85,46 L100,46 L106.129032,0 L96.0312921,0 Z" id="Fill-24"/>
                    <path d="M171.827957,0 L174.229996,46 L185.59366,46 L188,0 L171.827957,0 Z" id="Fill-25"/>
                </g>
                <g id="flag" transform="translate(174.000000, 51.000000)" sketch:type="MSShapeGroup">
                    <path d="M0,9 L4,9 L4,0 L0,0 L0,9 Z" id="Fill-26" fill="#1D1D1B"/>
                    <path d="M4,9 L8,9 L8,0 L4,0 L4,9 Z" id="Fill-27" fill="#FFEC00"/>
                    <path d="M8,9 L12,9 L12,0 L8,0 L8,9 Z" id="Fill-28" fill="#E20613"/>
                </g>
            </g>
        </g>
    </g>
</svg>