<?xml version="1.0" encoding="UTF-8"?>
<svg width="141px" height="45px" viewBox="0 0 141 45" version="1.1" xmlns="http://www.w3.org/2000/svg" xmlns:xlink="http://www.w3.org/1999/xlink">
    <!-- Generator: Sketch 46.2 (44496) - http://www.bohemiancoding.com/sketch -->
    <title>logo</title>
    <desc>Created with Sketch.</desc>
    <defs></defs>
    <g id="Page-1" stroke="none" stroke-width="1" fill="none" fill-rule="evenodd">
        <g id="start" transform="translate(-91.000000, -52.000000)" fill-rule="nonzero">
            <g id="Content">
                <g id="logo" transform="translate(91.000000, 52.000000)">
                    <g id="museum" transform="translate(63.677420, 37.500000)" fill="#B8A287">
                        <g id="illustrator" transform="translate(0.072580, 0.000000)">
                            <path d="M6.0816,7.35585 L6.0816,2.0751 C6.0816,1.57935 5.67285,1.3416 5.1816,1.3416 C4.6956,1.3416 4.28235,1.57935 4.28235,2.0751 L4.28235,7.35585 L3.0546,7.35585 L3.0546,2.0751 C3.0546,1.57935 2.6466,1.3416 2.1471,1.3416 C1.6416,1.3416 1.25085,1.57935 1.25085,2.0751 L1.25085,7.35585 L-0.00015,7.35585 L-0.00015,0.5571 L1.25085,0.5571 L1.25085,1.03485 C1.8381,0.36435 2.7756,0.34935 3.36885,0.54585 C3.6771,0.6456 3.91335,0.7821 4.07085,1.03485 C4.8936,0.34935 5.86785,0.36435 6.41985,0.54585 C7.0266,0.74385 7.31985,1.0731 7.31985,2.2236 L7.31985,7.35585 L6.0816,7.35585 Z" id="Fill-1"></path>
                            <path d="M15.7164,7.35585 L15.7164,6.88935 C15.13215,7.5576 14.2359,7.59285 13.6044,7.36935 C12.9819,7.18185 12.6834,6.85185 12.6834,5.6961 L12.6834,0.5601 L13.9179,0.5601 L13.9179,5.85435 C13.9179,6.3396 14.3304,6.5811 14.8164,6.5811 C15.3264,6.5811 15.7164,6.3396 15.7164,5.85435 L15.7164,0.5571 L16.97265,0.5571 L16.97265,7.35585 L15.7164,7.35585 Z" id="Fill-4"></path>
                            <path d="M26.271525,7.00485 C25.953525,7.32435 25.349775,7.49985 24.467775,7.49985 C23.612775,7.49985 23.005275,7.32435 22.692525,7.00485 C22.354275,6.67635 22.338525,6.1626 22.338525,5.65635 L22.338525,5.0691 L23.573775,5.0691 L23.573775,5.87235 C23.573775,6.36585 23.981775,6.58035 24.467775,6.58035 C24.957525,6.58035 25.368525,6.36585 25.368525,5.87235 L25.368525,3.98535 L22.338525,3.98535 L22.338525,2.2866 C22.338525,1.73535 22.354275,1.24935 22.692525,0.9381 C23.005275,0.6051 23.612775,0.44535 24.467775,0.44535 C25.349775,0.44535 25.953525,0.6051 26.271525,0.9381 C26.603775,1.26585 26.621025,1.7616 26.621025,2.2866 L26.621025,2.26485 L25.368525,2.26485 L25.368525,2.07585 C25.368525,1.5591 24.977775,1.36635 24.467775,1.36635 C23.981775,1.36635 23.573775,1.5591 23.573775,2.07585 L23.573775,3.0651 L26.621025,3.0651 L26.621025,5.6346 C26.621025,6.1626 26.603775,6.67635 26.271525,7.00485" id="Fill-6"></path>
                            <path d="M35.91705,6.989175 C35.6103,7.324425 35.00355,7.478175 34.1163,7.478175 C33.25755,7.478175 32.65155,7.324425 32.33955,6.989175 C32.00655,6.653175 31.98855,6.162675 31.98855,5.634675 L31.98855,2.285925 C31.98855,1.762425 32.00655,1.248675 32.33955,0.914925 C32.65155,0.604425 33.25755,0.446175 34.1163,0.446175 C35.00355,0.446175 35.6103,0.604425 35.91705,0.914925 C36.2568,1.248675 36.27555,1.762425 36.27555,2.285925 L36.27555,3.985425 L33.2193,3.985425 L33.2193,5.854425 C33.2193,6.365175 33.6348,6.554925 34.1163,6.554925 C34.63155,6.554925 35.0223,6.365175 35.0223,5.854425 L35.0223,5.069925 L36.27555,5.069925 L36.27555,5.634675 C36.27555,6.162675 36.2568,6.653175 35.91705,6.989175 M34.1163,1.365675 C33.6348,1.365675 33.2193,1.559175 33.2193,2.075925 L33.2193,3.065175 L35.0223,3.065175 L35.0223,2.075925 C35.0223,1.559175 34.63155,1.365675 34.1163,1.365675" id="Fill-8"></path>
                            <path d="M44.67255,7.352775 L44.67255,6.870525 C44.08755,7.538025 43.19205,7.571775 42.5643,7.352775 C41.9328,7.158525 41.6388,6.828525 41.6388,5.678775 L41.6388,0.563025 L42.87105,0.563025 L42.87105,5.837775 C42.87105,6.323025 43.2843,6.557025 43.7763,6.557025 C44.2818,6.557025 44.67255,6.323025 44.67255,5.837775 L44.67255,0.563025 L45.92805,0.563025 L45.92805,7.352775 L44.67255,7.352775 Z" id="Fill-10"></path>
                            <path d="M57.379125,7.3542 L57.379125,2.0697 C57.379125,1.58145 56.969625,1.33845 56.480625,1.33845 C55.987875,1.33845 55.577625,1.58145 55.577625,2.0697 L55.577625,7.3542 L54.340875,7.3542 L54.340875,2.0697 C54.340875,1.58145 53.934375,1.33845 53.448375,1.33845 C52.933125,1.33845 52.542375,1.58145 52.542375,2.0697 L52.542375,7.3542 L51.289125,7.3542 L51.289125,0.55995 L52.542375,0.55995 L52.542375,1.03695 C53.133375,0.36495 54.068625,0.34695 54.658875,0.5457 C54.973125,0.64395 55.209375,0.7812 55.362375,1.03695 C56.188125,0.34695 57.169125,0.36495 57.711375,0.5457 C58.319625,0.73845 58.609875,1.07445 58.609875,2.22495 L58.609875,7.3542 L57.379125,7.3542 Z" id="Fill-12"></path>
                        </g>
                    </g>
                    <g id="belvue" fill="#B8A287">
                        <path d="M20.25,36.026584 C20.0494994,39.8049337 19.8467473,45 10.0208128,45 L0,45 L0,0 L10.0208128,0 C19.8467473,0 20.0494994,5.12794829 20.25,8.8997178 L20.25,16.1905771 C20.0494994,18.1488441 18.7686832,20.3755831 16.2785715,21.2520655 C18.7686832,22.1285478 20.0494994,24.4230628 20.25,26.3089476 L20.25,36.026584 Z M11.25,6.95793541 C11.25,6.00627646 10.6034137,5.25 9.77725185,5.25 L8.25,5.25 L8.25,18.75 L9.77725185,18.75 C10.6034137,18.75 11.25,17.993059 11.25,17.0394063 L11.25,6.95793541 Z M11.25,25.7494895 C11.25,24.8074567 10.6034137,24 9.77725185,24 L8.25,24 L8.25,39.75 L9.77725185,39.75 C10.6034137,39.75 11.25,39.0140984 11.25,38.0740351 L11.25,25.7494895 Z" id="Fill-1"></path>
                        <path d="M22.5,36.3000011 L22.5,8.7674997 C22.7455537,5.00642508 22.9511035,0 32.7494134,0 C42.5457595,0 42.75,5.00642508 42.75,8.7638139 L42.75,24 L30.75,24 L30.75,38.1450004 C31.0683565,39.0683629 31.8054554,39.8592907 32.7494134,39.8592907 C33.6848614,39.8592907 34.425888,39.0683629 34.5,38.1450004 L34.5,29.25 L42.75,29.25 L42.75,36.3017219 C42.75,39.9955024 42.5457595,45 32.7494134,45 C22.9511035,45 22.7455537,39.9955024 22.5,36.3000011 Z M33.75,6.95252415 C33.75,6.03509187 33.0878826,5.25 32.2520472,5.25 C31.4086079,5.25 30.75,6.03509187 30.75,6.95252415 L30.75,18.75 L33.75,18.75 L33.75,6.95252415 Z" id="Fill-3"></path>
                        <polygon id="Fill-6" points="45.75 0 45.75 45 60.75 45 60.75 38.25 54 38.25 54 0"></polygon>
                        <path d="M105.75,25.8603511 L105.75,8.7039765 C105.75,4.97233606 105.949981,0 115.502548,0 C125.053841,0 125.25,4.97233606 125.25,8.7039765 L125.25,18.75 L114,18.75 L114,27.75 C113.86258,28.6060589 114.584803,29.3881812 115.502548,29.3881812 C116.413923,29.3881812 117.139966,28.6060589 117.139966,27.6889123 L117,24 L125.25,24 L125.25,25.5 C125.25,29.5212949 125.053841,34.5 115.502548,34.5 C105.949981,34.5 105.75,29.5212949 105.75,25.8603511 Z M116.552419,6.9235768 C116.552419,6.02251653 115.891875,5.25 115.062718,5.25 C114.227767,5.25 113.570699,6.02251653 113.570699,6.9235768 L113.570699,13.5 L116.552419,13.5 L116.552419,6.9235768 Z" id="Fill-19"></path>
                        <path d="M95.25,34.5 L94.964751,31.7416234 C94.038048,33.260269 92.2549365,34.3220339 90.3357525,34.3220339 C85.8402465,34.3220339 83.387097,31.9443239 83.25,27.3225002 L83.25,0 L91.5,0 L91.5,27.4575004 C91.5900577,28.3793677 92.3155552,29.1689347 93.2435475,29.1689347 C94.1689605,29.1689347 94.964751,28.3793677 95.25,27.4575004 L95.25,0 L102.75,0 L102.75,34.5 L95.25,34.5 Z" id="Fill-21"></path>
                        <polygon id="Fill-24" points="72.0234691 0 69.3306117 29.0440249 66.6884077 0 59.1290323 0 63.75 34.5 75 34.5 79.596774 0"></polygon>
                        <polygon id="Fill-25" points="128.870968 0 130.672497 34.5 139.195245 34.5 141 0"></polygon>
                    </g>
                    <g id="flag" transform="translate(130.500000, 38.250000)">
                        <polygon id="Fill-26" fill="#1D1D1B" points="0 6.75 3 6.75 3 0 0 0"></polygon>
                        <polygon id="Fill-27" fill="#FFEC00" points="3 6.75 6 6.75 6 0 3 0"></polygon>
                        <polygon id="Fill-28" fill="#E20613" points="6 6.75 9 6.75 9 0 6 0"></polygon>
                    </g>
                </g>
            </g>
        </g>
    </g>
</svg>